Mebo-Regular.ufo
<glyph name="A" format="2">
	<unicode hex="0041"/>
	<advance width="674"/>
	<outline>
		<contour>
			<point x="145" y="0" type="curve" smooth="yes"/>
			<point x="203" y="0" type="line" smooth="yes"/>
			<point x="233" y="0"/>
			<point x="251" y="12"/>
			<point x="251" y="32" type="curve" smooth="yes"/>
			<point x="251" y="69"/>
			<point x="188" y="105"/>
			<point x="188" y="179" type="curve" smooth="yes"/>
			<point x="188" y="262"/>
			<point x="269" y="305"/>
			<point x="384" y="305" type="curve" smooth="yes"/>
			<point x="476" y="305"/>
			<point x="500" y="278"/>
			<point x="501" y="222" type="curve" smooth="yes"/>
			<point x="503" y="122"/>
			<point x="427" y="87"/>
			<point x="427" y="36" type="curve" smooth="yes"/>
			<point x="427" y="14"/>
			<point x="441" y="0"/>
			<point x="463" y="0" type="curve" smooth="yes"/>
			<point x="571" y="0" type="line" smooth="yes"/>
			<point x="620" y="0"/>
			<point x="642" y="83"/>
			<point x="642" y="232" type="curve" smooth="yes"/>
			<point x="642" y="657"/>
			<point x="464" y="816"/>
			<point x="366" y="816" type="curve" smooth="yes"/>
			<point x="223" y="816"/>
			<point x="32" y="473"/>
			<point x="32" y="212" type="curve" smooth="yes"/>
			<point x="32" y="126"/>
			<point x="53" y="0"/>
		</contour>
		<contour>
			<point x="251" y="410" type="curve" smooth="yes"/>
			<point x="213" y="410"/>
			<point x="209" y="413"/>
			<point x="209" y="436" type="curve" smooth="yes"/>
			<point x="209" y="480"/>
			<point x="313" y="652"/>
			<point x="364" y="652" type="curve" smooth="yes"/>
			<point x="410" y="652"/>
			<point x="473" y="508"/>
			<point x="473" y="480" type="curve" smooth="yes"/>
			<point x="473" y="440"/>
			<point x="372" y="410"/>
		</contour>
	</outline>
</glyph>
<glyph name="B" format="2">
	<unicode hex="0042"/>
	<advance width="639"/>
	<outline>
		<contour>
			<point x="166" y="0" type="curve" smooth="yes"/>
			<point x="368" y="0" type="line" smooth="yes"/>
			<point x="525" y="0"/>
			<point x="607" y="64"/>
			<point x="607" y="186" type="curve" smooth="yes"/>
			<point x="607" y="352"/>
			<point x="455" y="416"/>
			<point x="455" y="466" type="curve" smooth="yes"/>
			<point x="455" y="508"/>
			<point x="562" y="539"/>
			<point x="562" y="659" type="curve" smooth="yes"/>
			<point x="562" y="753"/>
			<point x="496" y="800"/>
			<point x="365" y="800" type="curve" smooth="yes"/>
			<point x="200" y="800" type="line" smooth="yes"/>
			<point x="107" y="800"/>
			<point x="48" y="764"/>
			<point x="48" y="343" type="curve" smooth="yes"/>
			<point x="48" y="28"/>
			<point x="81" y="0"/>
		</contour>
		<contour>
			<point x="311" y="124" type="curve" smooth="yes"/>
			<point x="226" y="124"/>
			<point x="195" y="153"/>
			<point x="195" y="239" type="curve" smooth="yes"/>
			<point x="195" y="289"/>
			<point x="198" y="314"/>
			<point x="255" y="351" type="curve" smooth="yes"/>
			<point x="279" y="367"/>
			<point x="319" y="387"/>
			<point x="341" y="387" type="curve" smooth="yes"/>
			<point x="386" y="387"/>
			<point x="451" y="300"/>
			<point x="451" y="226" type="curve" smooth="yes"/>
			<point x="451" y="154"/>
			<point x="397" y="124"/>
		</contour>
		<contour>
			<point x="219" y="452" type="curve" smooth="yes"/>
			<point x="201" y="452"/>
			<point x="189" y="441"/>
			<point x="189" y="496" type="curve" smooth="yes"/>
			<point x="189" y="620"/>
			<point x="230" y="686"/>
			<point x="328" y="686" type="curve" smooth="yes"/>
			<point x="380" y="686"/>
			<point x="405" y="661"/>
			<point x="405" y="628" type="curve" smooth="yes"/>
			<point x="405" y="550"/>
			<point x="272" y="452"/>
		</contour>
	</outline>
</glyph>
<glyph name="C" format="2">
	<unicode hex="0043"/>
	<advance width="623"/>
	<outline>
		<contour>
			<point x="345" y="-16" type="curve" smooth="yes"/>
			<point x="499" y="-16"/>
			<point x="607" y="88"/>
			<point x="607" y="236" type="curve" smooth="yes"/>
			<point x="607" y="285"/>
			<point x="604" y="291"/>
			<point x="573" y="291" type="curve" smooth="yes"/>
			<point x="561" y="291"/>
			<point x="537" y="266"/>
			<point x="509" y="227" type="curve" smooth="yes"/>
			<point x="478" y="182"/>
			<point x="441" y="162"/>
			<point x="390" y="162" type="curve" smooth="yes"/>
			<point x="260" y="162"/>
			<point x="180" y="258"/>
			<point x="180" y="416" type="curve" smooth="yes"/>
			<point x="180" y="569"/>
			<point x="270" y="695"/>
			<point x="380" y="695" type="curve" smooth="yes"/>
			<point x="421" y="695"/>
			<point x="444" y="678"/>
			<point x="448" y="643" type="curve" smooth="yes"/>
			<point x="453" y="602"/>
			<point x="477" y="580"/>
			<point x="515" y="580" type="curve" smooth="yes"/>
			<point x="563" y="580"/>
			<point x="597" y="616"/>
			<point x="597" y="667" type="curve" smooth="yes"/>
			<point x="597" y="753"/>
			<point x="502" y="817"/>
			<point x="376" y="817" type="curve" smooth="yes"/>
			<point x="170" y="817"/>
			<point x="24" y="635"/>
			<point x="24" y="379" type="curve" smooth="yes"/>
			<point x="24" y="142"/>
			<point x="152" y="-16"/>
		</contour>
	</outline>
</glyph>
<glyph name="D" format="2">
	<unicode hex="0044"/>
	<advance width="646"/>
	<outline>
		<contour>
			<point x="205" y="0" type="curve" smooth="yes"/>
			<point x="343" y="0" type="line" smooth="yes"/>
			<point x="532" y="0"/>
			<point x="622" y="99"/>
			<point x="622" y="307" type="curve" smooth="yes"/>
			<point x="622" y="582"/>
			<point x="465" y="800"/>
			<point x="267" y="800" type="curve" smooth="yes"/>
			<point x="189" y="800" type="line" smooth="yes"/>
			<point x="82" y="800"/>
			<point x="48" y="690"/>
			<point x="48" y="344" type="curve" smooth="yes"/>
			<point x="48" y="-4"/>
			<point x="46" y="0"/>
		</contour>
		<contour>
			<point x="317" y="124" type="curve" smooth="yes"/>
			<point x="233" y="124"/>
			<point x="197" y="196"/>
			<point x="197" y="366" type="curve" smooth="yes"/>
			<point x="197" y="606"/>
			<point x="214" y="677"/>
			<point x="272" y="677" type="curve" smooth="yes"/>
			<point x="371" y="677"/>
			<point x="458" y="523"/>
			<point x="458" y="346" type="curve" smooth="yes"/>
			<point x="458" y="186"/>
			<point x="419" y="124"/>
		</contour>
	</outline>
</glyph>
<glyph name="E" format="2">
	<unicode hex="0045"/>
	<advance width="598"/>
	<outline>
		<contour>
			<point x="518" y="0" type="line" smooth="yes"/>
			<point x="547" y="0"/>
			<point x="566" y="18"/>
			<point x="566" y="46" type="curve" smooth="yes"/>
			<point x="566" y="103"/>
			<point x="515" y="187"/>
			<point x="480" y="187" type="curve" smooth="yes"/>
			<point x="446" y="187"/>
			<point x="412" y="124"/>
			<point x="310" y="124" type="curve" smooth="yes"/>
			<point x="216" y="124"/>
			<point x="188" y="192"/>
			<point x="188" y="257" type="curve" smooth="yes"/>
			<point x="188" y="353"/>
			<point x="245" y="385"/>
			<point x="304" y="385" type="curve" smooth="yes"/>
			<point x="348" y="385"/>
			<point x="375" y="367"/>
			<point x="396" y="366" type="curve" smooth="yes"/>
			<point x="445" y="365"/>
			<point x="458" y="469"/>
			<point x="458" y="500" type="curve" smooth="yes"/>
			<point x="458" y="540"/>
			<point x="435" y="544"/>
			<point x="413" y="544" type="curve" smooth="yes"/>
			<point x="338" y="544"/>
			<point x="287" y="500"/>
			<point x="246" y="500" type="curve" smooth="yes"/>
			<point x="220" y="500"/>
			<point x="204" y="513"/>
			<point x="204" y="554" type="curve" smooth="yes"/>
			<point x="204" y="635"/>
			<point x="265" y="686"/>
			<point x="341" y="686" type="curve" smooth="yes"/>
			<point x="412" y="686"/>
			<point x="450" y="641"/>
			<point x="481" y="641" type="curve" smooth="yes"/>
			<point x="524" y="641"/>
			<point x="555" y="727"/>
			<point x="555" y="761" type="curve" smooth="yes"/>
			<point x="555" y="784"/>
			<point x="540" y="800"/>
			<point x="493" y="800" type="curve" smooth="yes"/>
			<point x="193" y="800" type="line" smooth="yes"/>
			<point x="129" y="800"/>
			<point x="97" y="761"/>
			<point x="69" y="500" type="curve" smooth="yes"/>
			<point x="56" y="377"/>
			<point x="49" y="186"/>
			<point x="48" y="116" type="curve" smooth="yes"/>
			<point x="46" y="-54"/>
			<point x="74" y="0"/>
			<point x="151" y="0" type="curve" smooth="yes"/>
		</contour>
	</outline>
</glyph>
<glyph name="F" format="2">
	<unicode hex="0046"/>
	<advance width="600"/>
	<outline>
		<contour>
			<point x="146" y="0" type="curve" smooth="yes"/>
			<point x="203" y="0" type="line" smooth="yes"/>
			<point x="242" y="0"/>
			<point x="263" y="14"/>
			<point x="263" y="40" type="curve" smooth="yes"/>
			<point x="263" y="80"/>
			<point x="209" y="147"/>
			<point x="209" y="238" type="curve" smooth="yes"/>
			<point x="209" y="329"/>
			<point x="263" y="367"/>
			<point x="317" y="367" type="curve" smooth="yes"/>
			<point x="353" y="367"/>
			<point x="379" y="350"/>
			<point x="404" y="350" type="curve" smooth="yes"/>
			<point x="458" y="350"/>
			<point x="464" y="446"/>
			<point x="464" y="476" type="curve" smooth="yes"/>
			<point x="464" y="521"/>
			<point x="434" y="525"/>
			<point x="411" y="525" type="curve" smooth="yes"/>
			<point x="334" y="525"/>
			<point x="321" y="481"/>
			<point x="256" y="481" type="curve" smooth="yes"/>
			<point x="219" y="481"/>
			<point x="205" y="510"/>
			<point x="205" y="557" type="curve" smooth="yes"/>
			<point x="205" y="657"/>
			<point x="264" y="689"/>
			<point x="331" y="689" type="curve" smooth="yes"/>
			<point x="410" y="689"/>
			<point x="430" y="644"/>
			<point x="466" y="644" type="curve" smooth="yes"/>
			<point x="517" y="644"/>
			<point x="556" y="735"/>
			<point x="556" y="766" type="curve" smooth="yes"/>
			<point x="556" y="786"/>
			<point x="539" y="800"/>
			<point x="492" y="800" type="curve" smooth="yes"/>
			<point x="183" y="800" type="line" smooth="yes"/>
			<point x="79" y="800"/>
			<point x="48" y="740"/>
			<point x="48" y="344" type="curve" smooth="yes"/>
			<point x="48" y="-12"/>
			<point x="73" y="0"/>
		</contour>
	</outline>
</glyph>
<glyph name="G" format="2">
	<unicode hex="0047"/>
	<advance width="636"/>
	<outline>
		<contour>
			<point x="359" y="-16" type="curve" smooth="yes"/>
			<point x="511" y="-16"/>
			<point x="604" y="66"/>
			<point x="604" y="200" type="curve" smooth="yes"/>
			<point x="604" y="391"/>
			<point x="593" y="428"/>
			<point x="535" y="428" type="curve" smooth="yes"/>
			<point x="460" y="428"/>
			<point x="369" y="385"/>
			<point x="369" y="350" type="curve" smooth="yes"/>
			<point x="369" y="335"/>
			<point x="396" y="309"/>
			<point x="430" y="290" type="curve" smooth="yes"/>
			<point x="455" y="276"/>
			<point x="461" y="265"/>
			<point x="461" y="234" type="curve" smooth="yes"/>
			<point x="461" y="183"/>
			<point x="425" y="157"/>
			<point x="352" y="157" type="curve" smooth="yes"/>
			<point x="241" y="157"/>
			<point x="180" y="249"/>
			<point x="180" y="415" type="curve" smooth="yes"/>
			<point x="180" y="582"/>
			<point x="261" y="695"/>
			<point x="381" y="695" type="curve" smooth="yes"/>
			<point x="421" y="695"/>
			<point x="445" y="675"/>
			<point x="449" y="638" type="curve" smooth="yes"/>
			<point x="454" y="601"/>
			<point x="479" y="580"/>
			<point x="519" y="580" type="curve" smooth="yes"/>
			<point x="568" y="580"/>
			<point x="597" y="611"/>
			<point x="597" y="663" type="curve" smooth="yes"/>
			<point x="597" y="753"/>
			<point x="508" y="816"/>
			<point x="381" y="816" type="curve" smooth="yes"/>
			<point x="163" y="816"/>
			<point x="24" y="645"/>
			<point x="24" y="379" type="curve" smooth="yes"/>
			<point x="24" y="82"/>
			<point x="107" y="-16"/>
		</contour>
	</outline>
</glyph>
<glyph name="H" format="2">
	<unicode hex="0048"/>
	<advance width="686"/>
	<outline>
		<contour>
			<point x="105" y="0" type="curve" smooth="yes"/>
			<point x="124" y="0"/>
			<point x="201" y="0"/>
			<point x="201" y="0" type="curve" smooth="yes"/>
			<point x="259" y="0"/>
			<point x="248" y="15"/>
			<point x="248" y="35" type="curve" smooth="yes"/>
			<point x="248" y="74"/>
			<point x="205" y="146"/>
			<point x="205" y="233" type="curve" smooth="yes"/>
			<point x="205" y="359"/>
			<point x="315" y="388"/>
			<point x="406" y="388" type="curve" smooth="yes"/>
			<point x="489" y="388"/>
			<point x="497" y="351"/>
			<point x="497" y="300" type="curve" smooth="yes"/>
			<point x="497" y="156"/>
			<point x="432" y="83"/>
			<point x="432" y="35" type="curve" smooth="yes"/>
			<point x="432" y="12"/>
			<point x="446" y="0"/>
			<point x="484" y="0" type="curve" smooth="yes"/>
			<point x="507" y="0"/>
			<point x="575" y="0"/>
			<point x="575" y="0" type="curve" smooth="yes"/>
			<point x="647" y="0"/>
			<point x="638" y="127"/>
			<point x="638" y="334" type="curve" smooth="yes"/>
			<point x="638" y="861"/>
			<point x="580" y="800"/>
			<point x="522" y="800" type="curve" smooth="yes"/>
			<point x="451" y="800" type="line" smooth="yes"/>
			<point x="412" y="800"/>
			<point x="393" y="787"/>
			<point x="393" y="764" type="curve" smooth="yes"/>
			<point x="393" y="714"/>
			<point x="478" y="642"/>
			<point x="478" y="561" type="curve" smooth="yes"/>
			<point x="478" y="530"/>
			<point x="468" y="511"/>
			<point x="431" y="511" type="curve" smooth="yes"/>
			<point x="422" y="511"/>
			<point x="394" y="511"/>
			<point x="361" y="508" type="curve" smooth="yes"/>
			<point x="300" y="502"/>
			<point x="280" y="489"/>
			<point x="250" y="489" type="curve" smooth="yes"/>
			<point x="222" y="489"/>
			<point x="208" y="490"/>
			<point x="208" y="536" type="curve" smooth="yes"/>
			<point x="208" y="636"/>
			<point x="274" y="727"/>
			<point x="274" y="764" type="curve" smooth="yes"/>
			<point x="274" y="781"/>
			<point x="260" y="800"/>
			<point x="229" y="800" type="curve" smooth="yes"/>
			<point x="154" y="800" type="line" smooth="yes"/>
			<point x="90" y="800"/>
			<point x="48" y="803"/>
			<point x="48" y="316" type="curve" smooth="yes"/>
			<point x="48" y="79"/>
			<point x="58" y="0"/>
		</contour>
	</outline>
</glyph>
<glyph name="I" format="2">
	<unicode hex="0049"/>
	<advance width="315"/>
	<outline>
		<contour>
			<point x="150" y="0" type="curve" smooth="yes"/>
			<point x="213" y="0" type="line" smooth="yes"/>
			<point x="244" y="0"/>
			<point x="264" y="16"/>
			<point x="264" y="41" type="curve" smooth="yes"/>
			<point x="264" y="79"/>
			<point x="216" y="230"/>
			<point x="216" y="430" type="curve" smooth="yes"/>
			<point x="216" y="636"/>
			<point x="267" y="716"/>
			<point x="267" y="761" type="curve" smooth="yes"/>
			<point x="267" y="786"/>
			<point x="252" y="800"/>
			<point x="226" y="800" type="curve" smooth="yes"/>
			<point x="156" y="800" type="line" smooth="yes"/>
			<point x="84" y="800"/>
			<point x="60" y="704"/>
			<point x="60" y="344" type="curve" smooth="yes"/>
			<point x="60" y="-16"/>
			<point x="84" y="0"/>
		</contour>
	</outline>
</glyph>
<glyph name="J" format="2">
	<unicode hex="004A"/>
	<advance width="386"/>
	<outline>
		<contour>
			<point x="144" y="-16" type="curve" smooth="yes"/>
			<point x="305" y="-16"/>
			<point x="337" y="140"/>
			<point x="338" y="310" type="curve" smooth="yes"/>
			<point x="340" y="613"/>
			<point x="330" y="800"/>
			<point x="270" y="800" type="curve" smooth="yes"/>
			<point x="181" y="800" type="line" smooth="yes"/>
			<point x="145" y="800"/>
			<point x="130" y="790"/>
			<point x="130" y="764" type="curve" smooth="yes"/>
			<point x="130" y="715"/>
			<point x="183" y="665"/>
			<point x="183" y="364" type="curve" smooth="yes"/>
			<point x="183" y="193"/>
			<point x="164" y="146"/>
			<point x="135" y="146" type="curve" smooth="yes"/>
			<point x="119" y="146"/>
			<point x="111" y="160"/>
			<point x="104" y="172" type="curve" smooth="yes"/>
			<point x="94" y="192"/>
			<point x="82" y="215"/>
			<point x="56" y="215" type="curve" smooth="yes"/>
			<point x="14" y="215"/>
			<point x="0" y="165"/>
			<point x="0" y="112" type="curve" smooth="yes"/>
			<point x="0" y="39"/>
			<point x="43" y="-16"/>
		</contour>
	</outline>
</glyph>
<glyph name="K" format="2">
	<unicode hex="004B"/>
	<advance width="629"/>
	<outline>
		<contour>
			<point x="130" y="0" type="curve" smooth="yes"/>
			<point x="191" y="0" type="line" smooth="yes"/>
			<point x="224" y="0"/>
			<point x="241" y="10"/>
			<point x="241" y="35" type="curve" smooth="yes"/>
			<point x="241" y="62"/>
			<point x="205" y="86"/>
			<point x="205" y="234" type="curve" smooth="yes"/>
			<point x="205" y="290"/>
			<point x="280" y="361"/>
			<point x="311" y="361" type="curve" smooth="yes"/>
			<point x="359" y="361"/>
			<point x="417" y="191"/>
			<point x="417" y="63" type="curve" smooth="yes"/>
			<point x="417" y="14"/>
			<point x="435" y="0"/>
			<point x="477" y="0" type="curve" smooth="yes"/>
			<point x="540" y="0" type="line" smooth="yes"/>
			<point x="583" y="0"/>
			<point x="597" y="13"/>
			<point x="597" y="60" type="curve" smooth="yes"/>
			<point x="597" y="313"/>
			<point x="418" y="432"/>
			<point x="418" y="479" type="curve" smooth="yes"/>
			<point x="418" y="527"/>
			<point x="576" y="645"/>
			<point x="576" y="762" type="curve" smooth="yes"/>
			<point x="576" y="793"/>
			<point x="568" y="800"/>
			<point x="529" y="800" type="curve" smooth="yes"/>
			<point x="473" y="800" type="line" smooth="yes"/>
			<point x="441" y="800"/>
			<point x="431" y="791"/>
			<point x="416" y="752" type="curve" smooth="yes"/>
			<point x="367" y="621"/>
			<point x="255" y="449"/>
			<point x="220" y="449" type="curve" smooth="yes"/>
			<point x="205" y="449"/>
			<point x="198" y="463"/>
			<point x="198" y="510" type="curve" smooth="yes"/>
			<point x="198" y="658"/>
			<point x="249" y="730"/>
			<point x="249" y="764" type="curve" smooth="yes"/>
			<point x="249" y="786"/>
			<point x="239" y="800"/>
			<point x="200" y="800" type="curve" smooth="yes"/>
			<point x="159" y="800" type="line" smooth="yes"/>
			<point x="86" y="800"/>
			<point x="52" y="775"/>
			<point x="48" y="344" type="curve" smooth="yes"/>
			<point x="45" y="51"/>
			<point x="53" y="0"/>
		</contour>
	</outline>
</glyph>
<glyph name="L" format="2">
	<unicode hex="004C"/>
	<advance width="531"/>
	<outline>
		<contour>
			<point x="153" y="0" type="curve" smooth="yes"/>
			<point x="458" y="0" type="line" smooth="yes"/>
			<point x="506" y="0"/>
			<point x="523" y="15"/>
			<point x="523" y="54" type="curve" smooth="yes"/>
			<point x="523" y="90"/>
			<point x="508" y="206"/>
			<point x="458" y="206" type="curve" smooth="yes"/>
			<point x="413" y="206"/>
			<point x="386" y="124"/>
			<point x="300" y="124" type="curve" smooth="yes"/>
			<point x="237" y="124"/>
			<point x="191" y="168"/>
			<point x="191" y="289" type="curve" smooth="yes"/>
			<point x="191" y="558"/>
			<point x="301" y="718"/>
			<point x="301" y="765" type="curve" smooth="yes"/>
			<point x="301" y="781"/>
			<point x="290" y="800"/>
			<point x="256" y="800" type="curve" smooth="yes"/>
			<point x="171" y="800" type="line" smooth="yes"/>
			<point x="120" y="800"/>
			<point x="108" y="776"/>
			<point x="89" y="684" type="curve" smooth="yes"/>
			<point x="55" y="518"/>
			<point x="48" y="380"/>
			<point x="48" y="260" type="curve" smooth="yes"/>
			<point x="48" y="25"/>
			<point x="62" y="0"/>
		</contour>
	</outline>
</glyph>
<glyph name="M" format="2">
	<unicode hex="004D"/>
	<advance width="836"/>
	<outline>
		<contour>
			<point x="132" y="0" type="curve" smooth="yes"/>
			<point x="193" y="0" type="line" smooth="yes"/>
			<point x="244" y="0"/>
			<point x="258" y="22"/>
			<point x="258" y="53" type="curve" smooth="yes"/>
			<point x="258" y="97"/>
			<point x="195" y="191"/>
			<point x="195" y="454" type="curve" smooth="yes"/>
			<point x="195" y="552"/>
			<point x="204" y="590"/>
			<point x="224" y="590" type="curve" smooth="yes"/>
			<point x="248" y="590"/>
			<point x="308" y="484"/>
			<point x="351" y="339" type="curve" smooth="yes"/>
			<point x="359" y="311"/>
			<point x="376" y="295"/>
			<point x="406" y="295" type="curve" smooth="yes"/>
			<point x="434" y="295"/>
			<point x="447" y="310"/>
			<point x="458" y="339" type="curve" smooth="yes"/>
			<point x="512" y="484"/>
			<point x="572" y="590"/>
			<point x="596" y="590" type="curve" smooth="yes"/>
			<point x="619" y="590"/>
			<point x="628" y="552"/>
			<point x="628" y="454" type="curve" smooth="yes"/>
			<point x="628" y="194"/>
			<point x="577" y="97"/>
			<point x="577" y="44" type="curve" smooth="yes"/>
			<point x="577" y="18"/>
			<point x="592" y="0"/>
			<point x="630" y="0" type="curve" smooth="yes"/>
			<point x="705" y="0" type="line" smooth="yes"/>
			<point x="743" y="0"/>
			<point x="770" y="18"/>
			<point x="778" y="73" type="curve" smooth="yes"/>
			<point x="785" y="118"/>
			<point x="788" y="210.667"/>
			<point x="788" y="344" type="curve" smooth="yes"/>
			<point x="788" y="522"/>
			<point x="769" y="659"/>
			<point x="762" y="702" type="curve" smooth="yes"/>
			<point x="751" y="765"/>
			<point x="736" y="800"/>
			<point x="680" y="800" type="curve" smooth="yes"/>
			<point x="646" y="800" type="line" smooth="yes"/>
			<point x="593" y="800"/>
			<point x="549" y="773"/>
			<point x="454" y="600" type="curve" smooth="yes"/>
			<point x="443" y="580"/>
			<point x="433" y="563"/>
			<point x="417" y="563" type="curve" smooth="yes"/>
			<point x="402" y="563"/>
			<point x="392" y="580"/>
			<point x="383" y="597" type="curve" smooth="yes"/>
			<point x="294" y="773"/>
			<point x="258" y="800"/>
			<point x="197" y="800" type="curve" smooth="yes"/>
			<point x="153" y="800" type="line" smooth="yes"/>
			<point x="95" y="800"/>
			<point x="76" y="764"/>
			<point x="69" y="711" type="curve" smooth="yes"/>
			<point x="59" y="627"/>
			<point x="48" y="481.333"/>
			<point x="48" y="344" type="curve" smooth="yes"/>
			<point x="48" y="32"/>
			<point x="66" y="0"/>
		</contour>
	</outline>
</glyph>
<glyph name="N" format="2">
	<unicode hex="004E"/>
	<advance width="684"/>
	<outline>
		<contour>
			<point x="124" y="0" type="curve" smooth="yes"/>
			<point x="180" y="0" type="line" smooth="yes"/>
			<point x="206" y="0"/>
			<point x="218" y="12"/>
			<point x="218" y="42" type="curve" smooth="yes"/>
			<point x="218" y="91"/>
			<point x="178" y="161"/>
			<point x="178" y="481.5" type="curve" smooth="yes"/>
			<point x="178" y="535"/>
			<point x="183" y="550"/>
			<point x="204" y="550" type="curve" smooth="yes"/>
			<point x="231" y="550"/>
			<point x="299" y="426"/>
			<point x="327" y="364" type="curve" smooth="yes"/>
			<point x="383" y="241"/>
			<point x="403" y="186"/>
			<point x="443" y="42" type="curve" smooth="yes"/>
			<point x="452" y="10"/>
			<point x="468" y="0"/>
			<point x="492" y="0" type="curve" smooth="yes"/>
			<point x="560" y="0" type="line" smooth="yes"/>
			<point x="615" y="0"/>
			<point x="636" y="35"/>
			<point x="636" y="344" type="curve" smooth="yes"/>
			<point x="636" y="759"/>
			<point x="609" y="800"/>
			<point x="559" y="800" type="curve" smooth="yes"/>
			<point x="504" y="800" type="line" smooth="yes"/>
			<point x="466" y="800"/>
			<point x="454" y="786"/>
			<point x="454" y="766" type="curve" smooth="yes"/>
			<point x="454" y="733"/>
			<point x="506" y="590"/>
			<point x="506" y="425" type="curve" smooth="yes"/>
			<point x="506" y="403"/>
			<point x="501" y="389"/>
			<point x="492" y="389" type="curve" smooth="yes"/>
			<point x="483" y="389"/>
			<point x="474" y="402"/>
			<point x="462" y="427" type="curve" smooth="yes"/>
			<point x="330" y="697"/>
			<point x="276" y="800"/>
			<point x="200" y="800" type="curve" smooth="yes"/>
			<point x="133" y="800" type="line" smooth="yes"/>
			<point x="71" y="800"/>
			<point x="48" y="761"/>
			<point x="48" y="344" type="curve" smooth="yes"/>
			<point x="48" y="19"/>
			<point x="72" y="0"/>
		</contour>
	</outline>
</glyph>
<glyph name="O" format="2">
	<unicode hex="004F"/>
	<advance width="687"/>
	<outline>
		<contour>
			<point x="295" y="-16" type="curve" smooth="yes"/>
			<point x="392" y="-16" type="line" smooth="yes"/>
			<point x="570" y="-16"/>
			<point x="663" y="103"/>
			<point x="663" y="292" type="curve" smooth="yes"/>
			<point x="663" y="511"/>
			<point x="540" y="816"/>
			<point x="344" y="816" type="curve" smooth="yes"/>
			<point x="136" y="816"/>
			<point x="24" y="491"/>
			<point x="24" y="292" type="curve" smooth="yes"/>
			<point x="24" y="103"/>
			<point x="118" y="-16"/>
		</contour>
		<contour>
			<point x="343.5" y="157" type="curve" smooth="yes"/>
			<point x="234.5" y="157"/>
			<point x="180" y="209.333"/>
			<point x="180" y="314" type="curve" smooth="yes"/>
			<point x="180" y="511.333"/>
			<point x="270.667" y="661"/>
			<point x="344" y="661" type="curve" smooth="yes"/>
			<point x="417.333" y="661"/>
			<point x="507" y="511.333"/>
			<point x="507" y="314" type="curve" smooth="yes"/>
			<point x="507" y="209.333"/>
			<point x="452.5" y="157"/>
		</contour>
	</outline>
</glyph>
<glyph name="P" format="2">
	<unicode hex="0050"/>
	<advance width="602"/>
	<outline>
		<contour>
			<point x="234" y="412" type="curve" smooth="yes"/>
			<point x="208.667" y="412"/>
			<point x="205" y="428"/>
			<point x="205" y="456" type="curve" smooth="yes"/>
			<point x="205" y="569"/>
			<point x="205" y="686"/>
			<point x="330" y="686" type="curve" smooth="yes"/>
			<point x="395.333" y="686"/>
			<point x="446" y="659.667"/>
			<point x="446" y="597" type="curve" smooth="yes"/>
			<point x="446" y="533"/>
			<point x="290" y="412"/>
		</contour>
		<contour>
			<point x="130" y="0" type="curve" smooth="yes"/>
			<point x="194" y="0" type="line" smooth="yes"/>
			<point x="237" y="0"/>
			<point x="259" y="17"/>
			<point x="259" y="57" type="curve" smooth="yes"/>
			<point x="259" y="87"/>
			<point x="225" y="144"/>
			<point x="225" y="207" type="curve" smooth="yes"/>
			<point x="225" y="282"/>
			<point x="411" y="369"/>
			<point x="468.5" y="406.5" type="curve" smooth="yes"/>
			<point x="542.5" y="455.167"/>
			<point x="602" y="533.333"/>
			<point x="602" y="628" type="curve" smooth="yes"/>
			<point x="602" y="746"/>
			<point x="528" y="800"/>
			<point x="395" y="800" type="curve" smooth="yes"/>
			<point x="139" y="800" type="line" smooth="yes"/>
			<point x="84" y="800"/>
			<point x="48" y="771"/>
			<point x="48" y="344" type="curve" smooth="yes"/>
			<point x="48" y="210.667"/>
			<point x="55" y="118"/>
			<point x="59" y="73" type="curve" smooth="yes"/>
			<point x="65" y="12"/>
			<point x="81" y="0"/>
		</contour>
	</outline>
</glyph>
<glyph name="Q" format="2">
	<unicode hex="0051"/>
	<advance width="698"/>
	<outline>
		<contour>
			<point x="348" y="-16" type="curve" smooth="yes"/>
			<point x="500" y="-16"/>
			<point x="528" y="31"/>
			<point x="560" y="31" type="curve" smooth="yes"/>
			<point x="574" y="31"/>
			<point x="585" y="18"/>
			<point x="593" y="0" type="curve" smooth="yes"/>
			<point x="604" y="-24"/>
			<point x="590" y="-42"/>
			<point x="620" y="-42" type="curve" smooth="yes"/>
			<point x="652" y="-42"/>
			<point x="674" y="-24"/>
			<point x="674" y="16" type="curve" smooth="yes"/>
			<point x="674" y="83"/>
			<point x="639" y="95"/>
			<point x="639" y="132" type="curve" smooth="yes"/>
			<point x="639" y="162"/>
			<point x="662" y="204"/>
			<point x="662" y="316" type="curve" smooth="yes"/>
			<point x="662" y="552"/>
			<point x="527" y="821"/>
			<point x="346" y="816" type="curve" smooth="yes"/>
			<point x="135" y="810"/>
			<point x="24" y="517"/>
			<point x="24" y="300" type="curve" smooth="yes"/>
			<point x="24" y="31"/>
			<point x="172" y="-16"/>
		</contour>
		<contour>
			<point x="348" y="664" type="curve" smooth="yes"/>
			<point x="412" y="664"/>
			<point x="502" y="523"/>
			<point x="502" y="354" type="curve" smooth="yes"/>
			<point x="502" y="280"/>
			<point x="492" y="255"/>
			<point x="469" y="255" type="curve" smooth="yes"/>
			<point x="444" y="255"/>
			<point x="424" y="279"/>
			<point x="396" y="315" type="curve" smooth="yes"/>
			<point x="374" y="344"/>
			<point x="354" y="361"/>
			<point x="328" y="361" type="curve" smooth="yes"/>
			<point x="305" y="361"/>
			<point x="283" y="341"/>
			<point x="283" y="309" type="curve" smooth="yes"/>
			<point x="283" y="274"/>
			<point x="306" y="257"/>
			<point x="354" y="216" type="curve" smooth="yes"/>
			<point x="365" y="207"/>
			<point x="384" y="194"/>
			<point x="384" y="182" type="curve" smooth="yes"/>
			<point x="384" y="166"/>
			<point x="377" y="157"/>
			<point x="348" y="157" type="curve" smooth="yes"/>
			<point x="259" y="157"/>
			<point x="181" y="184"/>
			<point x="181" y="323" type="curve" smooth="yes"/>
			<point x="181" y="434"/>
			<point x="248" y="664"/>
		</contour>
	</outline>
</glyph>
<glyph name="R" format="2">
	<unicode hex="0052"/>
	<advance width="640"/>
	<outline>
		<contour>
			<point x="234" y="428" type="curve" smooth="yes"/>
			<point x="215" y="428"/>
			<point x="205" y="448"/>
			<point x="205" y="487" type="curve" smooth="yes"/>
			<point x="205" y="626"/>
			<point x="227" y="686"/>
			<point x="330" y="686" type="curve" smooth="yes"/>
			<point x="389" y="686"/>
			<point x="439" y="659"/>
			<point x="439" y="603" type="curve" smooth="yes"/>
			<point x="439" y="528"/>
			<point x="286" y="428"/>
		</contour>
		<contour>
			<point x="117" y="0" type="curve" smooth="yes"/>
			<point x="205" y="0" type="line" smooth="yes"/>
			<point x="233" y="0"/>
			<point x="247" y="20"/>
			<point x="247" y="44" type="curve" smooth="yes"/>
			<point x="247" y="74"/>
			<point x="211" y="135"/>
			<point x="211" y="221" type="curve" smooth="yes"/>
			<point x="211" y="270"/>
			<point x="275" y="314"/>
			<point x="311" y="314" type="curve" smooth="yes"/>
			<point x="364" y="314"/>
			<point x="444" y="137"/>
			<point x="444" y="45" type="curve" smooth="yes"/>
			<point x="444" y="6"/>
			<point x="452" y="0"/>
			<point x="491" y="0" type="curve" smooth="yes"/>
			<point x="588" y="0" type="line" smooth="yes"/>
			<point x="614" y="0"/>
			<point x="624" y="15"/>
			<point x="624" y="45" type="curve" smooth="yes"/>
			<point x="624" y="225"/>
			<point x="464" y="339"/>
			<point x="464" y="391" type="curve" smooth="yes"/>
			<point x="464" y="425"/>
			<point x="595" y="450"/>
			<point x="595" y="619" type="curve" smooth="yes"/>
			<point x="595" y="744"/>
			<point x="499" y="800"/>
			<point x="371" y="800" type="curve" smooth="yes"/>
			<point x="185" y="800" type="line" smooth="yes"/>
			<point x="95" y="800"/>
			<point x="48" y="736"/>
			<point x="48" y="341" type="curve" smooth="yes"/>
			<point x="48" y="24"/>
			<point x="81" y="0"/>
		</contour>
	</outline>
</glyph>
<glyph name="S" format="2">
	<unicode hex="0053"/>
	<advance width="624"/>
	<outline>
		<contour>
			<point x="308" y="-16" type="curve" smooth="yes"/>
			<point x="486" y="-16"/>
			<point x="592" y="102"/>
			<point x="592" y="235" type="curve" smooth="yes"/>
			<point x="592" y="343"/>
			<point x="533" y="430"/>
			<point x="347" y="492" type="curve" smooth="yes"/>
			<point x="273" y="517"/>
			<point x="199" y="545"/>
			<point x="199" y="607" type="curve" smooth="yes"/>
			<point x="199" y="659"/>
			<point x="253" y="687"/>
			<point x="309" y="687" type="curve" smooth="yes"/>
			<point x="403" y="687"/>
			<point x="431" y="600"/>
			<point x="471" y="600" type="curve" smooth="yes"/>
			<point x="504" y="600"/>
			<point x="548" y="686"/>
			<point x="548" y="715" type="curve" smooth="yes"/>
			<point x="548" y="767"/>
			<point x="401" y="816"/>
			<point x="309" y="816" type="curve" smooth="yes"/>
			<point x="108" y="816"/>
			<point x="58" y="675"/>
			<point x="58" y="598" type="curve" smooth="yes"/>
			<point x="58" y="454"/>
			<point x="164" y="395"/>
			<point x="292" y="355" type="curve" smooth="yes"/>
			<point x="356" y="334"/>
			<point x="435" y="308"/>
			<point x="435" y="238" type="curve" smooth="yes"/>
			<point x="435" y="180.667"/>
			<point x="375.333" y="147"/>
			<point x="298" y="147" type="curve" smooth="yes"/>
			<point x="182" y="147"/>
			<point x="122" y="203"/>
			<point x="107" y="311" type="curve" smooth="yes"/>
			<point x="104" y="332"/>
			<point x="94" y="343"/>
			<point x="79" y="343" type="curve" smooth="yes"/>
			<point x="55" y="343"/>
			<point x="32" y="276.524"/>
			<point x="32" y="212" type="curve" smooth="yes"/>
			<point x="32" y="68"/>
			<point x="158.667" y="-16"/>
		</contour>
	</outline>
</glyph>
<glyph name="T" format="2">
	<unicode hex="0054"/>
	<advance width="604"/>
	<outline>
		<contour>
			<point x="257" y="0" type="curve" smooth="yes"/>
			<point x="358" y="0" type="line" smooth="yes"/>
			<point x="391" y="0"/>
			<point x="405" y="11"/>
			<point x="405" y="40" type="curve" smooth="yes"/>
			<point x="405" y="69"/>
			<point x="352" y="193"/>
			<point x="352" y="402" type="curve" smooth="yes"/>
			<point x="352" y="582"/>
			<point x="380" y="675"/>
			<point x="421" y="675" type="curve" smooth="yes"/>
			<point x="491.595" y="675"/>
			<point x="527" y="595"/>
			<point x="546" y="595" type="curve" smooth="yes"/>
			<point x="570" y="595"/>
			<point x="604" y="691"/>
			<point x="604" y="730" type="curve" smooth="yes"/>
			<point x="604" y="793"/>
			<point x="465" y="816"/>
			<point x="311" y="816" type="curve" smooth="yes"/>
			<point x="250" y="816"/>
			<point x="82" y="800"/>
			<point x="41" y="763" type="curve" smooth="yes"/>
			<point x="19" y="743"/>
			<point x="0" y="632"/>
			<point x="0" y="601" type="curve" smooth="yes"/>
			<point x="0" y="584"/>
			<point x="14" y="564"/>
			<point x="27" y="564" type="curve" smooth="yes"/>
			<point x="73" y="564"/>
			<point x="141.048" y="675"/>
			<point x="219" y="675" type="curve" smooth="yes"/>
			<point x="231.144" y="675"/>
			<point x="241" y="669"/>
			<point x="241" y="644" type="curve" smooth="yes"/>
			<point x="241" y="613"/>
			<point x="196" y="433"/>
			<point x="196" y="241" type="curve" smooth="yes"/>
			<point x="196" y="29"/>
			<point x="217" y="0"/>
		</contour>
	</outline>
</glyph>
<glyph name="U" format="2">
	<unicode hex="0055"/>
	<advance width="650"/>
	<outline>
		<contour>
			<point x="324" y="-14" type="curve" smooth="yes"/>
			<point x="520" y="-14"/>
			<point x="618" y="137.333"/>
			<point x="618" y="440" type="curve" smooth="yes"/>
			<point x="618" y="737"/>
			<point x="587" y="800"/>
			<point x="552" y="800" type="curve" smooth="yes"/>
			<point x="478" y="800" type="line" smooth="yes"/>
			<point x="448" y="800"/>
			<point x="433" y="779"/>
			<point x="433" y="755" type="curve" smooth="yes"/>
			<point x="433" y="725"/>
			<point x="477" y="529"/>
			<point x="477" y="434" type="curve" smooth="yes"/>
			<point x="477" y="305"/>
			<point x="455" y="157"/>
			<point x="324" y="157" type="curve" smooth="yes"/>
			<point x="218" y="157"/>
			<point x="188" y="338"/>
			<point x="188" y="444" type="curve" smooth="yes"/>
			<point x="188" y="574.667"/>
			<point x="236" y="727"/>
			<point x="236" y="759" type="curve" smooth="yes"/>
			<point x="236" y="784"/>
			<point x="216" y="800"/>
			<point x="191" y="800" type="curve" smooth="yes"/>
			<point x="109" y="800" type="line" smooth="yes"/>
			<point x="73" y="800"/>
			<point x="32" y="769"/>
			<point x="32" y="414" type="curve" smooth="yes"/>
			<point x="32" y="131.333"/>
			<point x="138.667" y="-14"/>
		</contour>
	</outline>
</glyph>
<glyph name="V" format="2">
	<unicode hex="0056"/>
	<advance width="621"/>
	<outline>
		<contour>
			<point x="309" y="-23" type="curve" smooth="yes"/>
			<point x="419" y="-23"/>
			<point x="605" y="313"/>
			<point x="605" y="549" type="curve" smooth="yes"/>
			<point x="605" y="722"/>
			<point x="579" y="800"/>
			<point x="537" y="800" type="curve" smooth="yes"/>
			<point x="429" y="800" type="line" smooth="yes"/>
			<point x="412" y="800"/>
			<point x="400" y="791"/>
			<point x="400" y="772" type="curve" smooth="yes"/>
			<point x="400" y="751"/>
			<point x="464" y="689"/>
			<point x="464" y="501" type="curve" smooth="yes"/>
			<point x="464" y="385"/>
			<point x="389" y="186"/>
			<point x="309" y="186" type="curve" smooth="yes"/>
			<point x="254" y="186"/>
			<point x="173" y="382"/>
			<point x="173" y="501" type="curve" smooth="yes"/>
			<point x="173" y="621"/>
			<point x="224" y="725"/>
			<point x="224" y="760" type="curve" smooth="yes"/>
			<point x="224" y="783"/>
			<point x="209" y="800"/>
			<point x="179" y="800" type="curve" smooth="yes"/>
			<point x="69" y="800" type="line" smooth="yes"/>
			<point x="49" y="800"/>
			<point x="37.926" y="786.235"/>
			<point x="29.5" y="751" type="curve" smooth="yes"/>
			<point x="22.167" y="720.333"/>
			<point x="16" y="656"/>
			<point x="16" y="568" type="curve" smooth="yes"/>
			<point x="16" y="257"/>
			<point x="200" y="-23"/>
		</contour>
	</outline>
</glyph>
<glyph name="W" format="2">
	<unicode hex="0057"/>
	<advance width="823"/>
	<outline>
		<contour>
			<point x="224" y="-16" type="curve" smooth="yes"/>
			<point x="276" y="-16"/>
			<point x="298" y="70"/>
			<point x="324" y="141" type="curve" smooth="yes"/>
			<point x="342" y="190"/>
			<point x="363" y="232"/>
			<point x="396.5" y="232" type="curve" smooth="yes"/>
			<point x="429" y="232"/>
			<point x="450" y="193"/>
			<point x="468" y="146" type="curve" smooth="yes"/>
			<point x="495" y="74"/>
			<point x="517" y="-16"/>
			<point x="569" y="-16" type="curve" smooth="yes"/>
			<point x="685" y="-16"/>
			<point x="807" y="294"/>
			<point x="807" y="642" type="curve" smooth="yes"/>
			<point x="807" y="783"/>
			<point x="795" y="800"/>
			<point x="753" y="800" type="curve" smooth="yes"/>
			<point x="664" y="800" type="line" smooth="yes"/>
			<point x="651" y="800"/>
			<point x="644" y="795"/>
			<point x="644" y="785" type="curve" smooth="yes"/>
			<point x="644" y="767"/>
			<point x="677" y="669.555"/>
			<point x="677" y="568" type="curve" smooth="yes"/>
			<point x="677" y="492"/>
			<point x="664.5" y="417.667"/>
			<point x="639.5" y="345" type="curve" smooth="yes"/>
			<point x="614.5" y="272.333"/>
			<point x="592" y="236"/>
			<point x="572" y="236" type="curve" smooth="yes"/>
			<point x="554" y="236"/>
			<point x="535" y="277"/>
			<point x="520" y="338" type="curve" smooth="yes"/>
			<point x="501" y="410"/>
			<point x="488" y="511"/>
			<point x="488" y="606" type="curve" smooth="yes"/>
			<point x="488" y="686.847"/>
			<point x="507" y="762"/>
			<point x="507" y="783" type="curve" smooth="yes"/>
			<point x="507" y="794"/>
			<point x="499" y="800"/>
			<point x="483" y="800" type="curve" smooth="yes"/>
			<point x="357" y="800" type="line" smooth="yes"/>
			<point x="346" y="800"/>
			<point x="341" y="796"/>
			<point x="341" y="787" type="curve" smooth="yes"/>
			<point x="341" y="770"/>
			<point x="358" y="691.941"/>
			<point x="358" y="603" type="curve" smooth="yes"/>
			<point x="358" y="463"/>
			<point x="323.333" y="332.833"/>
			<point x="290" y="277.5" type="curve" smooth="yes"/>
			<point x="273.333" y="249.833"/>
			<point x="259.667" y="236"/>
			<point x="249" y="236" type="curve" smooth="yes"/>
			<point x="238" y="236"/>
			<point x="227" y="251"/>
			<point x="216" y="278" type="curve" smooth="yes"/>
			<point x="182" y="360"/>
			<point x="169" y="489"/>
			<point x="169" y="585" type="curve" smooth="yes"/>
			<point x="169" y="679.557"/>
			<point x="197" y="765"/>
			<point x="197" y="786" type="curve" smooth="yes"/>
			<point x="197" y="795"/>
			<point x="190" y="800"/>
			<point x="175" y="800" type="curve" smooth="yes"/>
			<point x="55" y="800" type="line" smooth="yes"/>
			<point x="36" y="800"/>
			<point x="16" y="777"/>
			<point x="16" y="553" type="curve" smooth="yes"/>
			<point x="16" y="314"/>
			<point x="120" y="-16"/>
		</contour>
	</outline>
</glyph>
<glyph name="X" format="2">
	<unicode hex="0058"/>
	<advance width="614"/>
	<outline>
		<contour>
			<point x="55" y="0" type="curve" smooth="yes"/>
			<point x="135" y="0" type="line" smooth="yes"/>
			<point x="167" y="0"/>
			<point x="175" y="10"/>
			<point x="180" y="51" type="curve" smooth="yes"/>
			<point x="193" y="158"/>
			<point x="240" y="304"/>
			<point x="306" y="305" type="curve" smooth="yes"/>
			<point x="363" y="305"/>
			<point x="401" y="152"/>
			<point x="410" y="33" type="curve" smooth="yes"/>
			<point x="412" y="8"/>
			<point x="427" y="0"/>
			<point x="456" y="0" type="curve" smooth="yes"/>
			<point x="552" y="0" type="line" smooth="yes"/>
			<point x="581" y="0"/>
			<point x="590" y="6"/>
			<point x="590" y="29" type="curve" smooth="yes"/>
			<point x="590" y="137"/>
			<point x="551.333" y="241.333"/>
			<point x="507" y="307" type="curve" smooth="yes"/>
			<point x="477.86" y="348.92"/>
			<point x="439" y="392.412"/>
			<point x="439" y="417.5" type="curve" smooth="yes"/>
			<point x="439" y="450.01"/>
			<point x="488.759" y="487.05"/>
			<point x="522.5" y="544.5" type="curve" smooth="yes"/>
			<point x="547.167" y="586.5"/>
			<point x="568" y="656.333"/>
			<point x="568" y="743" type="curve" smooth="yes"/>
			<point x="568" y="787.31"/>
			<point x="566.435" y="800"/>
			<point x="525" y="800" type="curve" smooth="yes"/>
			<point x="450" y="800" type="line" smooth="yes"/>
			<point x="418" y="800"/>
			<point x="410" y="795"/>
			<point x="410" y="770" type="curve" smooth="yes"/>
			<point x="410" y="673"/>
			<point x="401" y="621"/>
			<point x="386" y="582" type="curve" smooth="yes"/>
			<point x="371" y="543"/>
			<point x="352" y="512"/>
			<point x="334" y="512" type="curve" smooth="yes"/>
			<point x="319.549" y="512"/>
			<point x="296.117" y="538.394"/>
			<point x="275.5" y="586.5" type="curve" smooth="yes"/>
			<point x="261.5" y="619.167"/>
			<point x="248" y="673"/>
			<point x="243" y="749" type="curve" smooth="yes"/>
			<point x="240" y="792"/>
			<point x="226" y="800"/>
			<point x="208" y="800" type="curve" smooth="yes"/>
			<point x="94" y="800" type="line" smooth="yes"/>
			<point x="72" y="800"/>
			<point x="64" y="788"/>
			<point x="64" y="770" type="curve" smooth="yes"/>
			<point x="64" y="682"/>
			<point x="88" y="611"/>
			<point x="117" y="565" type="curve" smooth="yes"/>
			<point x="132" y="542"/>
			<point x="213" y="438"/>
			<point x="213" y="418" type="curve" smooth="yes"/>
			<point x="213" y="383.968"/>
			<point x="141.311" y="325.068"/>
			<point x="118" y="290" type="curve" smooth="yes"/>
			<point x="53.667" y="195.167"/>
			<point x="24" y="108.667"/>
			<point x="24" y="33" type="curve" smooth="yes"/>
			<point x="24" y="4"/>
			<point x="31" y="0"/>
		</contour>
	</outline>
</glyph>
<glyph name="Y" format="2">
	<unicode hex="0059"/>
	<advance width="623"/>
	<outline>
		<contour>
			<point x="202" y="0" type="curve" smooth="yes"/>
			<point x="314" y="0" type="line" smooth="yes"/>
			<point x="348" y="0"/>
			<point x="358" y="10"/>
			<point x="358" y="26" type="curve" smooth="yes"/>
			<point x="358" y="43"/>
			<point x="352" y="65"/>
			<point x="352" y="80" type="curve" smooth="yes"/>
			<point x="352" y="176"/>
			<point x="375" y="241"/>
			<point x="419" y="323" type="curve" smooth="yes"/>
			<point x="486" y="448"/>
			<point x="607" y="544"/>
			<point x="607" y="749" type="curve" smooth="yes"/>
			<point x="607" y="788"/>
			<point x="598" y="800"/>
			<point x="561" y="800" type="curve" smooth="yes"/>
			<point x="488" y="800" type="line" smooth="yes"/>
			<point x="461" y="800"/>
			<point x="450" y="792"/>
			<point x="450" y="775" type="curve" smooth="yes"/>
			<point x="450" y="759"/>
			<point x="458" y="729"/>
			<point x="458" y="704" type="curve" smooth="yes"/>
			<point x="458" y="633"/>
			<point x="412" y="538"/>
			<point x="368" y="482" type="curve" smooth="yes"/>
			<point x="346" y="454"/>
			<point x="336" y="440"/>
			<point x="320" y="440" type="curve" smooth="yes"/>
			<point x="293" y="440"/>
			<point x="260" y="491"/>
			<point x="247" y="521" type="curve" smooth="yes"/>
			<point x="212" y="602"/>
			<point x="197" y="642"/>
			<point x="197" y="680" type="curve" smooth="yes"/>
			<point x="197" y="717"/>
			<point x="206" y="746"/>
			<point x="206" y="767" type="curve" smooth="yes"/>
			<point x="206" y="790"/>
			<point x="190" y="800"/>
			<point x="167" y="800" type="curve" smooth="yes"/>
			<point x="73" y="800" type="line" smooth="yes"/>
			<point x="26" y="800"/>
			<point x="16" y="795"/>
			<point x="16" y="727" type="curve" smooth="yes"/>
			<point x="16" y="559"/>
			<point x="107" y="442"/>
			<point x="214" y="322" type="curve" smooth="yes"/>
			<point x="229" y="305"/>
			<point x="236" y="294"/>
			<point x="236" y="289" type="curve" smooth="yes"/>
			<point x="236" y="273"/>
			<point x="219" y="249"/>
			<point x="199" y="193" type="curve" smooth="yes"/>
			<point x="179" y="138"/>
			<point x="172" y="89"/>
			<point x="172" y="56" type="curve" smooth="yes"/>
			<point x="172" y="19"/>
			<point x="182" y="0"/>
		</contour>
	</outline>
</glyph>
<glyph name="Z" format="2">
	<unicode hex="005A"/>
	<advance width="600"/>
	<outline>
		<contour>
			<point x="81" y="0" type="curve" smooth="yes"/>
			<point x="517" y="0" type="line" smooth="yes"/>
			<point x="546.333" y="0"/>
			<point x="561" y="4.667"/>
			<point x="561" y="14" type="curve" smooth="yes"/>
			<point x="561" y="26"/>
			<point x="506" y="188"/>
			<point x="490" y="188" type="curve" smooth="yes"/>
			<point x="479" y="188"/>
			<point x="462" y="181"/>
			<point x="435" y="159" type="curve" smooth="yes"/>
			<point x="414" y="142"/>
			<point x="373" y="124"/>
			<point x="326" y="124" type="curve" smooth="yes"/>
			<point x="278" y="124"/>
			<point x="233" y="143"/>
			<point x="233" y="182" type="curve" smooth="yes"/>
			<point x="233" y="237"/>
			<point x="321.167" y="368.667"/>
			<point x="408.5" y="478" type="curve" smooth="yes"/>
			<point x="495.833" y="587.333"/>
			<point x="584" y="717"/>
			<point x="584" y="769" type="curve" smooth="yes"/>
			<point x="584" y="789"/>
			<point x="570" y="800"/>
			<point x="546" y="800" type="curve" smooth="yes"/>
			<point x="102" y="800" type="line" smooth="yes"/>
			<point x="83" y="800"/>
			<point x="64" y="790"/>
			<point x="64" y="774" type="curve" smooth="yes"/>
			<point x="64" y="755"/>
			<point x="109" y="631"/>
			<point x="129" y="631" type="curve" smooth="yes"/>
			<point x="146.621" y="631"/>
			<point x="179" y="686"/>
			<point x="273" y="686" type="curve" smooth="yes"/>
			<point x="313" y="686"/>
			<point x="333" y="672"/>
			<point x="333" y="645" type="curve" smooth="yes"/>
			<point x="333" y="604"/>
			<point x="213.404" y="464.052"/>
			<point x="128.5" y="333.5" type="curve" smooth="yes"/>
			<point x="66.5" y="238.167"/>
			<point x="16" y="123.667"/>
			<point x="16" y="41" type="curve" smooth="yes"/>
			<point x="16" y="8"/>
			<point x="36" y="0"/>
		</contour>
	</outline>
</glyph>
